<svg width="100" height="100" viewBox="0 0 100 100" fill="none" xmlns="http://www.w3.org/2000/svg">
<path fill-rule="evenodd" clip-rule="evenodd" d="M50 100C77.6142 100 100 77.6142 100 50C100 22.3858 77.6142 0 50 0C22.3858 0 0 22.3858 0 50C0 77.6142 22.3858 100 50 100ZM29.5 41C25.3579 41 22 44.3579 22 48.5V62.5C22 66.6421 25.3579 70 29.5 70C33.6421 70 37 66.6421 37 62.5V48.5C37 44.3579 33.6421 41 29.5 41ZM64 38.5C64 34.3579 67.3579 31 71.5 31C75.6421 31 79 34.3579 79 38.5V62.5C79 66.6421 75.6421 70 71.5 70C67.3579 70 64 66.6421 64 62.5V38.5ZM50.5 21C46.3579 21 43 24.3579 43 28.5V71.5C43 75.6421 46.3579 79 50.5 79C54.6421 79 58 75.6421 58 71.5V28.5C58 24.3579 54.6421 21 50.5 21Z" fill="#00D3F2"/>
</svg>
