<svg width="100" height="100" viewBox="0 0 100 100" fill="none" xmlns="http://www.w3.org/2000/svg">
<path fill-rule="evenodd" clip-rule="evenodd" d="M50 100C77.6142 100 100 77.6142 100 50C100 22.3858 77.6142 0 50 0C22.3858 0 0 22.3858 0 50C0 77.6142 22.3858 100 50 100ZM32 40C29.2386 40 27 42.2386 27 45V64C27 66.7614 29.2386 69 32 69C34.7614 69 37 66.7614 37 64V45C37 42.2386 34.7614 40 32 40ZM45 27.5C45 24.4624 47.4624 22 50.5 22C53.5376 22 56 24.4624 56 27.5V73.5C56 76.5376 53.5376 79 50.5 79C47.4624 79 45 76.5376 45 73.5V27.5ZM69 32C66.2386 32 64 34.2386 64 37V64C64 66.7614 66.2386 69 69 69C71.7614 69 74 66.7614 74 64V37C74 34.2386 71.7614 32 69 32Z" fill="#2B7FFF"/>
</svg>
